<?xml version="1.0"?>
<svg xmlns="http://www.w3.org/2000/svg" height="512px" version="1.1" viewBox="0 0 512 512" width="512px">
<g id="surface1">
<path d="M 437.019531 74.980469 C 388.667969 26.628906 324.378906 0 256 0 C 187.617188 0 123.332031 26.628906 74.980469 74.980469 C 26.628906 123.332031 0 187.621094 0 256 C 0 324.378906 26.628906 388.667969 74.980469 437.019531 C 123.332031 485.371094 187.617188 512 256 512 C 324.378906 512 388.667969 485.371094 437.019531 437.019531 C 485.371094 388.667969 512 324.378906 512 256 C 512 187.621094 485.371094 123.332031 437.019531 74.980469 Z M 256 482 C 131.382812 482 30 380.617188 30 256 C 30 131.382812 131.382812 30 256 30 C 380.617188 30 482 131.382812 482 256 C 482 380.617188 380.617188 482 256 482 Z M 256 482 " style=" fill-rule:nonzero;fill-opacity:1;" stroke="#91DC5A" fill="#91DC5A"/>
<path d="M 396.453125 240.871094 L 356.289062 240.871094 C 348.003906 240.871094 341.289062 247.589844 341.289062 255.871094 C 341.289062 264.15625 348.003906 270.871094 356.289062 270.871094 L 360.445312 270.871094 C 353.195312 322.027344 309.125 361.5 256 361.5 C 202.828125 361.5 158.730469 321.960938 151.535156 270.742188 L 155.84375 270.742188 C 164.125 270.742188 170.84375 264.027344 170.84375 255.742188 C 170.84375 247.457031 164.125 240.742188 155.84375 240.742188 L 115.675781 240.742188 C 107.390625 240.742188 100.675781 247.457031 100.675781 255.742188 C 100.675781 264.027344 107.390625 270.742188 115.675781 270.742188 L 121.304688 270.742188 C 128.675781 338.546875 186.265625 391.5 256 391.5 C 325.6875 391.5 383.25 338.617188 390.679688 270.871094 L 396.453125 270.871094 C 404.738281 270.871094 411.453125 264.15625 411.453125 255.871094 C 411.453125 247.589844 404.738281 240.871094 396.453125 240.871094 Z M 396.453125 240.871094 " style=" fill-rule:nonzero;fill-opacity:1;" stroke="#91DC5A" fill="#91DC5A"/>
<path d="M 336.335938 182.632812 C 344.617188 182.632812 351.335938 175.917969 351.335938 167.632812 L 351.335938 151.566406 C 351.335938 143.28125 344.617188 136.566406 336.335938 136.566406 C 328.050781 136.566406 321.335938 143.28125 321.335938 151.566406 L 321.335938 167.632812 C 321.335938 175.917969 328.050781 182.632812 336.335938 182.632812 Z M 336.335938 182.632812 " style=" fill-rule:nonzero;fill-opacity:1;" stroke="#91DC5A" fill="#91DC5A"/>
<path d="M 175.664062 182.632812 C 183.949219 182.632812 190.664062 175.917969 190.664062 167.632812 L 190.664062 151.566406 C 190.664062 143.28125 183.949219 136.566406 175.664062 136.566406 C 167.382812 136.566406 160.664062 143.28125 160.664062 151.566406 L 160.664062 167.632812 C 160.664062 175.917969 167.382812 182.632812 175.664062 182.632812 Z M 175.664062 182.632812 " style=" fill-rule:nonzero;fill-opacity:1;" stroke="#91DC5A" fill="#91DC5A"/>
</g>
</svg>
